<?xml version="1.0" encoding="utf-8"?>
<!-- Generator: Adobe Illustrator 23.0.3, SVG Export Plug-In . SVG Version: 6.00 Build 0)  -->
<svg version="1.1" id="Layer_1" xmlns="http://www.w3.org/2000/svg" xmlns:xlink="http://www.w3.org/1999/xlink" x="0px" y="0px"
	 viewBox="0 0 841.88959 595.28027" style="enable-background:new 0 0 841.88959 595.28027;" xml:space="preserve">
<style type="text/css">
	.Arched_x0020_Green{fill:url(#SVGID_1_);stroke:#FFFFFF;stroke-width:0.25;stroke-miterlimit:1;}
	.st0{fill:#2062AF;}
	.st1{fill:#3C9CD7;}
	.st2{fill:#FFFFFF;}
	.st3{fill:url(#SVGID_2_);}
	.st4{fill:url(#SVGID_3_);}
	.st5{fill:url(#SVGID_4_);}
	.st6{opacity:0.05;}
	.st7{fill:url(#SVGID_5_);}
</style>
<linearGradient id="SVGID_1_" gradientUnits="userSpaceOnUse" x1="0" y1="595.28027" x2="0.70711" y2="594.57318">
	<stop  offset="0" style="stop-color:#20AC4B"/>
	<stop  offset="0.98315" style="stop-color:#19361A"/>
</linearGradient>
<g>
	<g>
		<polygon class="st0" points="557.15326,495.80179 420.94339,532.47845 284.73138,495.80179 253.29979,155.27739 
			588.58978,155.27739 		"/>
		<polygon class="st1" points="420.94189,182.85939 420.94189,503.22659 421.24899,503.30957 531.47852,473.62888 
			556.9209,182.85939 		"/>
		<g>
			<polygon points="343.63818,105.2476 343.63818,84.98 373.20901,84.98 373.20901,62.8018 321.45999,62.8018 321.45999,125.4854 
				373.20901,125.4854 373.20901,105.2476 			"/>
			<path d="M426.4043,84.98h20.67279V62.8018h-51.7529c0,0,0,11.1318,0,22.1782c6.9234,6.92429,10.5347,10.2378,20.54791,20.252
				c-5.85309,0-20.54791,0.021-20.54791,0.0195v20.2339h51.7529v-20.2378L426.4043,84.98z"/>
			<path d="M499.75677,84.98h20.67291V62.8018h-51.75681c0,0,0,11.1318,0,22.1782c6.9238,6.92429,10.53711,10.2378,20.55072,20.252
				c-5.8515,0-20.55072,0.021-20.55072,0.0195v20.2339h51.75681v-20.2378L499.75677,84.98z"/>
		</g>
		<g>
			<polygon class="st2" points="420.82129,268.00439 323.33008,308.60739 326.564,348.80569 420.82129,308.50488 
				521.08502,265.6377 525.24316,224.5161 			"/>
			<linearGradient id="SVGID_2_" gradientUnits="userSpaceOnUse" x1="372.07568" y1="348.80569" x2="372.07568" y2="268.00439">
				<stop  offset="0.3865" style="stop-color:#D1D3D4;stop-opacity:0"/>
				<stop  offset="1" style="stop-color:#D1D3D4"/>
			</linearGradient>
			<polygon class="st3" points="323.33008,308.60739 326.564,348.80569 420.82129,308.50488 420.82129,268.00439 			"/>
			<linearGradient id="SVGID_3_" gradientUnits="userSpaceOnUse" x1="473.03223" y1="308.50488" x2="473.03223" y2="224.5161">
				<stop  offset="0.3865" style="stop-color:#D1D3D4;stop-opacity:0"/>
				<stop  offset="1" style="stop-color:#D1D3D4"/>
			</linearGradient>
			<polygon class="st4" points="525.24316,224.5161 420.82129,268.00439 420.82129,308.50488 521.08502,265.6377 			"/>
			<linearGradient id="SVGID_4_" gradientUnits="userSpaceOnUse" x1="323.48001" y1="384.84473" x2="517.54388" y2="384.84473">
				<stop  offset="0" style="stop-color:#E8E7E5"/>
				<stop  offset="1" style="stop-color:#FFFFFF"/>
			</linearGradient>
			<polygon class="st5" points="323.48001,308.60739 326.71439,348.80569 471.3389,349.26758 468.10449,402.86429 
				420.51459,416.2637 374.7666,404.71289 371.9946,371.44528 329.4863,371.44528 335.03079,435.66989 420.97607,461.08209 
				506.4541,436.13089 517.54388,308.60739 			"/>
			<g class="st6">
				<polygon points="420.82129,308.60739 323.33008,308.60739 326.564,348.80569 420.82129,349.10651 				"/>
				<polygon points="420.82129,416.13379 420.35938,416.2637 374.61719,404.71289 371.8447,371.44528 329.33688,371.44528 
					334.88089,435.66989 420.82129,461.08209 				"/>
			</g>
			<linearGradient id="SVGID_5_" gradientUnits="userSpaceOnUse" x1="314.5513" y1="245.07689" x2="525.24316" y2="245.07689">
				<stop  offset="0" style="stop-color:#E8E7E5"/>
				<stop  offset="1" style="stop-color:#FFFFFF"/>
			</linearGradient>
			<polygon class="st7" points="314.5513,224.5161 525.24316,224.5161 521.08502,265.6377 319.6333,265.6377 			"/>
			<polygon class="st6" points="420.82129,224.5161 314.5513,224.5161 319.6333,265.6377 420.82129,265.6377 			"/>
		</g>
	</g>
</g>
</svg>
